SplineFontDB: 3.0
FontName: AyannaNarrowTamil-Light
FullName: AyannaNarrow
FamilyName: AyannaNarrow
OS2StyleName: "regular"
Weight: Light
Copyright: Licensed under the SIL Open Font License 1.1 (see file OFL.txt)
Version: pre
ItalicAngle: 0
UnderlinePosition: 0
UnderlineWidth: 0
Ascent: 819
Descent: 205
InvalidEm: 1
UFOAscent: 900
UFODescent: -400
LayerCount: 2
Layer: 0 0 "Back" 1
Layer: 1 0 "Fore" 0
PreferredKerning: 4
FSType: 0
OS2Version: 0
OS2_WeightWidthSlopeOnly: 0
OS2_UseTypoMetrics: 0
CreationTime: 1435046519
ModificationTime: 1437135350
PfmFamily: 16
TTFWeight: 400
TTFWidth: 5
LineGap: 0
VLineGap: 0
Panose: 2 0 6 0 0 0 0 0 0 0
OS2TypoAscent: 0
OS2TypoAOffset: 1
OS2TypoDescent: 0
OS2TypoDOffset: 1
OS2TypoLinegap: 0
OS2WinAscent: 0
OS2WinAOffset: 1
OS2WinDescent: 0
OS2WinDOffset: 1
HheadAscent: 0
HheadAOffset: 1
HheadDescent: 0
HheadDOffset: 1
OS2SubXSize: 861
OS2SubYSize: 799
OS2SubXOff: 0
OS2SubYOff: 246
OS2SupXSize: 861
OS2SupYSize: 799
OS2SupXOff: 0
OS2SupYOff: 615
OS2StrikeYSize: 61
OS2StrikeYPos: 307
OS2CapHeight: 720
OS2XHeight: 520
OS2Vendor: 'ACE '
OS2CodePages: 00000001.00000000
OS2UnicodeRanges: 80108003.00002042.00000000.00000000
Lookup: 1 0 0 "ss07" { "ss07-0"  } ['ss07' ('latn' <'dflt' > ) ]
Lookup: 1 0 0 "ss06" { "ss06-0"  } ['ss06' ('latn' <'dflt' > ) ]
Lookup: 1 0 0 "ss05" { "ss05-0"  } ['ss05' ('latn' <'dflt' > ) ]
Lookup: 1 0 0 "ss04" { "ss04-0"  } ['ss04' ('latn' <'dflt' > ) ]
Lookup: 1 0 0 "ss03" { "ss03-0"  } ['ss03' ('latn' <'dflt' > ) ]
Lookup: 1 0 0 "ss02" { "ss02-0"  } ['ss02' ('latn' <'dflt' > ) ]
Lookup: 1 0 0 "ss01" { "ss01-0"  } ['ss01' ('latn' <'dflt' > ) ]
MarkAttachClasses: 1
DEI: 91125
LangName: 1033 "Licensed under the SIL Open Font License 1.1 (see file OFL.txt)" "" "Medium" "" "" "Version 2.5.0" "" "" "" "" "" "" "" "" "" "" "ayanna-tamil" "tamil"
PickledDataWithLists: "(dp1
S'com.schriftgestaltung.weight'
p2
S'Light'
p3
sS'public.glyphOrder'
p4
(lp5
S'tm_A'
p6
aS'tm_Aa'
p7
aS'tm_Ai'
p8
aS'tm_Au'
p9
aS'tm_Ca'
p10
aS'tm_E'

StartChar: uni0B85
Encoding: 3 2949 0
GlifName: tm_A_
Width: 776
VWidth: 0
Flags: HW
HStem: -134 36<166.706 355.432> 160 35<141.354 678> 298 35<219.933 321.795> 492 37<228.107 385.381>
VStem: 155 37<359.354 458.575> 524 37<84.4743 308.835> 670 36<-129 160 195 521> 670 8<160 195>
LayerCount: 2
Back
Fore
SplineSet
706 -129 m 257xfe
 670 -129 l 257
 670 521 l 257
 706 521 l 257
 706 -129 l 257xfe
524 176 m 0
 525.926231568 318.453500224 458.301712548 488.950718588 276 492 c 0
 227.976127932 492.803274409 180.956044098 458.580220097 182 408 c 0
 182.82 368.27056277 208.431924759 333.888631761 264 333 c 0
 336.663770951 331.837977842 353.444444445 425.242774567 348 491 c 257
 380 485 l 257
 391.582481846 393.842857143 356.857497232 298.905023395 267 298 c 0
 190.041209717 297.224889321 145.897083579 345.391041922 145 408 c 0
 144.014925373 476.75 208.030746123 528.688737877 276 529 c 0
 481.555766621 529.941333333 560.038676027 341.726080949 561 176 c 0
 562.031141868 -1.76223776224 424.432525952 -134 275 -134 c 256
 112.066123188 -134 38.7097034903 -65.2188987962 30 27 c 256
 19.3825103778 139.418660639 102.328767123 215 206 215 c 258
 678 215 l 257
 678 180 l 257xfd
 209 180 l 258
 120.084611525 180 55.1026462319 111.670570005 67 34.126953125 c 256
 82.3158866547 -70.7417529294 164.464114833 -98.873046875 277 -98.873046875 c 256
 402.46031746 -98.873046875 521.857669092 12.7665916911 524 176 c 0
EndSplineSet
PickledDataWithLists: "(dp1
S'com.fontlab.hintData'
p2
(dp3
S'vhints'
p4
(lp5
(dp6
S'position'
p7
I60
sS'width'
p8
I32
sa(dp9
g7
I188
sg8
I32
sa(dp10
g7
I402
sg8
I32
sa(dp11
g7
I638
sg8
I33
sa(dp12
g7
I638
sg8
I11
sasS'hhints'
p13
(lp14
(dp15
g7
S'-134'
p16
sg8
I31
sa(dp17
g7
I132
sg8
I33
sa(dp18
g7
I240
sg8
I32
sa(dp19
g7
I454
sg8
I32
sass."
EndChar

StartChar: uni0B8E
Encoding: 9 2958 1
GlifName: tm_E_
Width: 695
VWidth: 0
Flags: HW
HStem: -17 36<143.421 245.433> 1 21G<533 569> 233 36<118.148 239.159> 486 35<209.872 533 569 669>
VStem: 35 37<115.107 346.148> 284 37<58.919 187.892> 533 36<1 486>
LayerCount: 2
Back
SplineSet
215 -23 m 260
 99 -23 35 88 35 240 c 260
 35 416.312292359 135 543.986710964 296 545 c 260
 300 442 l 260
 195 442 136 358.326530613 136 242 c 260
 136 148 155 80 215 80 c 260
 246 80 268 103 268 135 c 260
 268 172 242 198 207 198 c 260
 171 198 133 173 116 138 c 261
 73 216 l 261
 103 258 161 289 210 289 c 260
 301 289 367 225 367 136 c 260
 367 44 303 -23 215 -23 c 260
474 0 m 5x3e
 474 442 l 5
 293 442 l 5
 288 545 l 5
 666 545 l 5
 666 442 l 5
 579 442 l 5
 579 0 l 5
 474 0 l 5x3e
EndSplineSet
Fore
SplineSet
44 187 m 257xbe
 75 238 129 269 185 269 c 256
 261 269 321 209 321 126 c 256
 321 43 269 -17 198 -17 c 256
 93 -17 35 92 35 242 c 256
 35 416.76779864 135.361328125 543.96594632 300 545 c 260
 301 510 l 260
 157.15625 510 72 397.377273309 72 242 c 256
 72 113 115 19 197 19 c 256
 247 19 284 64 284 126 c 256
 284 188 240 233 183 233 c 256
 126 233 90 199 61 165 c 257
 44 187 l 257xbe
533 1 m 1x7e
 533 510 l 5
 301 510 l 5
 296 545 l 5
 669 545 l 5
 669 510 l 5
 569 510 l 5
 569 1 l 1
 533 1 l 1x7e
EndSplineSet
PickledDataWithLists: "(dp1
S'com.schriftgestaltung.Glyphs.ColorIndex'
p2
I6
sS'public.markColor'
p3
S'0,0.67,0.91,1'
p4
s."
EndChar

StartChar: uni0B8F
Encoding: 10 2959 2
GlifName: tm_E_e
Width: 659
VWidth: 0
Flags: HW
HStem: -18 36<108.421 210.433> 0 21G<498 534> 232 36<83.1483 204.159> 485 35<174.872 498 534 634>
VStem: 0 37<114.107 345.148> 249 37<57.919 186.892> 498 36<0 485>
LayerCount: 2
Back
SplineSet
554 0 m 261x7e
 299 -238.46875 l 261
 233 -170.46875 l 261
 449 32 l 261
 554 0 l 261x7e
263 520 m 1
 641 520 l 1
 641 417 l 1
 554 417 l 1
 554 0 l 1
 449 0 l 1
 449 417 l 1
 368 417 l 1
 263 520 l 1
179 192 m 256
 137.571289062 192 101.643554688 162.4921875 83 136 c 257
 39 197 l 257
 69.177734375 245.380859375 123.74609375 285 185 285 c 256
 269.942382812 285 337 218.286132812 337 126 c 256
 337 39.517578125 281.951171875 -23 185 -23 c 256
 69.048828125 -23 5 88.525390625 5 242 c 256
 5 402.34765625 95.1357421875 519.044921875 243 520 c 256
 407 520.002929688 l 257
 404 417 l 256
 244 417 l 256
 152.537109375 417 110 343.458984375 110 242 c 256
 110 149.443359375 128.03125 82 185 82 c 256
 211.740234375 82 238 104.709960938 238 136 c 256
 238 168.448242188 212.297851562 192 179 192 c 256
EndSplineSet
Fore
SplineSet
533 0 m 257x7e
 301 -221 l 257
 278 -197 l 257
 497 15 l 257
 533 0 l 257x7e
EndSplineSet
Refer: 1 2958 N 1 0 0 1 -35 -1 2
PickledDataWithLists: "(dp1
S'com.schriftgestaltung.Glyphs.ColorIndex'
p2
I6
sS'public.markColor'
p3
S'0,0.67,0.91,1'
p4
s."
EndChar

StartChar: uni0B87
Encoding: 5 2951 3
GlifName: tm_I_
Width: 1024
VWidth: 0
LayerCount: 2
Back
SplineSet
449 445 m 257
 384 555 l 257
 473 522 519 400 519 282 c 256
 519 199 508 187 508 187 c 257
 507 211 l 257
 635 181 675 114 676 36 c 256
 676 -69 621 -129 511 -129 c 256
 414 -129 345 -60 345 -60 c 257
 368 -60 l 257
 326 -90 282 -130 189 -129 c 256
 92 -128 26 -83 26 33 c 256
 27 145 126 190 156 203 c 257
 151 172 l 257
 127 233 84 280 84 412 c 256
 83 579 178 711 348 711 c 256
 588 711 658 505 628 227 c 257
 592 229 l 257
 619 482 565 677 348 677 c 256
 226 677 118 592 118 411 c 256
 118 304 167 215 184 187 c 257
 165 205 l 257
 165 205 229 230 338 230 c 256
 432 230 497 213 497 213 c 257
 476 199 l 257
 476 199 488 208 488 277 c 256
 488 330 474 394 449 445 c 257
244 442 m 256
 244 392 285 351 335 351 c 256
 385 351 426 392 426 442 c 256
 426 492 385 533 335 533 c 256
 285 533 244 492 244 442 c 256
212 442 m 256
 212 510 267 565 335 565 c 256
 403 565 458 510 458 442 c 256
 458 374 403 319 335 319 c 256
 267 319 212 374 212 442 c 256
339 -35 m 257
 396 15 446 93 476 192 c 257
 482 180 l 257
 459 187 406 197 340 197 c 256
 240 197 169 169 169 169 c 257
 175 168 181 183 187 182 c 257
 232 99 307 10 367 -34 c 257
 339 -35 l 257
58 32 m 256
 58 -56 117 -99 190 -99 c 256
 250 -99 297 -69 331 -40 c 257
 330 -53 l 257
 268 -7 194 91 156 164 c 257
 155 169 165 169 164 169 c 257
 120 151 58 108 58 32 c 256
377 -53 m 257
 377 -41 l 257
 401 -62 451 -97 513 -97 c 256
 601 -97 642 -45 642 38 c 256
 642 106 594 156 494 178 c 257
 508 181 l 257
 481 84 431 4 377 -53 c 257
EndSplineSet
Fore
PickledDataWithLists: "(dp1
S'com.fontlab.hintData'
p2
(dp3
S'vhints'
p4
(lp5
(dp6
S'position'
p7
I26
sS'width'
p8
I32
sa(dp9
g7
I84
sg8
I32
sa(dp10
g7
I250
sg8
I32
sa(dp11
g7
I435
sg8
I32
sa(dp12
g7
I486
sg8
I32
sa(dp13
g7
I633
sg8
I32
sasS'hhints'
p14
(lp15
(dp16
g7
S'-19'
p17
sg8
I30
sa(dp18
g7
I309
sg8
I30
sa(dp19
g7
I431
sg8
I30
sa(dp20
g7
I617
sg8
I30
sa(dp21
g7
I770
sg8
I30
sass."
EndChar

StartChar: uni0B88
Encoding: 6 2952 4
GlifName: tm_I_i
Width: 602
VWidth: 0
Flags: HW
HStem: 0 21G<70 106.041 375 411.038> 203.7 66.5996<221.265 283.735 486.265 548.735> 485 35<107 376 411.933 572>
VStem: 70 36<0 485> 219.2 66.5996<205.765 268.235> 375 36<0 485> 484.2 66.5996<205.765 268.235>
LayerCount: 2
Back
SplineSet
255.5 217.059570312 m 0
 223.099609375 217.059570312 195.559570312 244.599609375 195.559570312 277 c 0
 195.559570312 309.400390625 223.099609375 336.940429688 255.5 336.940429688 c 0
 287.900390625 336.940429688 315.440429688 309.400390625 315.440429688 277 c 0
 315.440429688 244.599609375 287.900390625 217.059570312 255.5 217.059570312 c 0
562.5 217.059570312 m 0
 530.099609375 217.059570312 502.559570312 244.599609375 502.559570312 277 c 0
 502.559570312 309.400390625 530.099609375 336.940429688 562.5 336.940429688 c 0
 594.900390625 336.940429688 622.440429688 309.400390625 622.440429688 277 c 0
 622.440429688 244.599609375 594.900390625 217.059570312 562.5 217.059570312 c 0
60 0 m 5
 60 520 l 1
 617 520 l 1
 617 420 l 1
 460 420 l 1
 460 0 l 1
 355 0 l 1
 355 420 l 1
 165 420 l 1
 165 0 l 1
 60 0 l 5
EndSplineSet
Fore
SplineSet
252.5 203.700195312 m 256
 234.500105574 203.700195312 219.200195312 219.000105574 219.200195312 237 c 256
 219.200195312 254.999894426 234.500105574 270.299804688 252.5 270.299804688 c 256
 270.499894426 270.299804688 285.799804688 254.999894426 285.799804688 237 c 256
 285.799804688 219.000105574 270.499894426 203.700195312 252.5 203.700195312 c 256
517.5 203.700195312 m 256
 499.500105574 203.700195312 484.200195312 219.000105574 484.200195312 237 c 256
 484.200195312 254.999894426 499.500105574 270.299804688 517.5 270.299804688 c 256
 535.499894426 270.299804688 550.799804688 254.999894426 550.799804688 237 c 256
 550.799804688 219.000105574 535.499894426 203.700195312 517.5 203.700195312 c 256
70 0 m 1
 71 520 l 1
 572 520 l 1
 572 485 l 1
 411.932692308 485 l 1
 411 0 l 1
 375 0 l 1
 376 485 l 1
 107 485 l 5
 106 0 l 5
 70 0 l 1
EndSplineSet
PickledDataWithLists: "(dp1
S'com.schriftgestaltung.Glyphs.ColorIndex'
p2
I6
sS'public.markColor'
p3
S'0,0.67,0.91,1'
p4
s."
EndChar

StartChar: uni0BB2
Encoding: 30 2994 5
GlifName: tm_L_a
Width: 1024
VWidth: 0
LayerCount: 2
Back
SplineSet
59 118 m 256
 59 186 114 241 182 241 c 256
 250 241 305 186 305 118 c 256
 305 50 251 -5 183 -5 c 256
 115 -5 59 50 59 118 c 256
91 118 m 256
 91 68 132 27 182 27 c 256
 232 27 273 68 273 118 c 256
 273 168 232 209 182 209 c 256
 132 209 91 168 91 118 c 256
139 3 m 256
 -41 77 -20 516 235 516 c 256
 234 482 l 256
 26 482 -12 92 175 17 c 256
 139 3 l 256
469 497 m 257
 487 525 l 257
 555 495 639 407 639 249 c 256
 639 129 618 -5 489 -5 c 256
 387 -5 352 59 352 131 c 256
 352 233 393 329 359 405 c 256
 332 464 284 481 234 482 c 257
 234 516 l 257
 299 515 353 491 390 423 c 256
 432 346 387 211 388 132 c 256
 389 52 437 27 490 27 c 256
 584 27 606 140 606 248 c 256
 606 369 544 462 469 497 c 257
EndSplineSet
Fore
PickledDataWithLists: "(dp1
S'com.fontlab.hintData'
p2
(dp3
S'vhints'
p4
(lp5
(dp6
S'position'
p7
I278
sS'width'
p8
I1
sa(dp9
g7
I313
sg8
I32
sa(dp10
g7
I394
sg8
I36
sa(dp11
g7
I665
sg8
I33
sasS'hhints'
p12
(lp13
(dp14
g7
S'-1'
p15
sg8
I32
sa(dp16
g7
I213
sg8
I32
sa(dp17
g7
I486
sg8
I34
sass."
EndChar

StartChar: uni0BB3
Encoding: 31 2995 6
GlifName: tm_L_la
Width: 892
VWidth: 0
Flags: HMW
VStem: 40 37<115.107 363.81> 289 37<58.919 187.892> 441 35<0 485> 715 36<0 485>
LayerCount: 2
Back
SplineSet
65 172 m 257x2f80
 98.4179402372 232.304723669 146.107721259 277 217 277 c 256
 298.588992011 277 363 221.541830505 363 131 c 256
 363 43.9374186198 308.313217625 -19 212 -19 c 256
 97.9817482035 -19 35 90.8417480469 35 242 c 256
 35 411 127.037181189 533.161328667 278 535 c 256
 469.880220785 537.343613348 543.748129252 368.086989177 544 179 c 256
 439 224 l 256
 439.025641026 324.575741681 393.280406546 429 279 429 c 256
 186.663884943 429 132 350.415944786 132 242 c 256
 132 145.972815225 159.519755747 76 212 76 c 256
 244.18359375 76 268 97.8692079741 268 128 c 256
 268 161.607421875 244.911223235 186 215 186 c 256
 164.214445347 186 124.722997607 140.423076923 109 107 c 257
 65 172 l 257x2f80
439 1 m 1
 439 521 l 1
 897 521 l 1
 897 418 l 1
 810 418 l 1
 810 1 l 1
 705 1 l 1
 705 418 l 1
 544 418 l 1
 544 1 l 1
 439 1 l 1
EndSplineSet
Fore
SplineSet
49 187 m 257
 80 238 134 269 190 269 c 256
 266 269 326 209 326 126 c 256
 326 43 274 -17 203 -17 c 256
 98 -17 40 92 40 242 c 256
 40 422.535836177 121 553.931740614 255 555 c 260
 394.628649657 556.115385471 478.009049774 428.690140845 476 251 c 257
 441 257 l 256
 441 409.129032258 373.635869565 519 256 519 c 260
 144 519 77 402.595330739 77 242 c 256
 77 113 120 19 202 19 c 256
 252 19 289 64 289 126 c 256
 289 188 245 233 188 233 c 256
 131 233 95 199 66 165 c 257
 49 187 l 257
476 0 m 1
 440 0 l 1
 441 545 l 1
 872 545 l 1
 872 510 l 1
 751.932617188 510 l 1
 751 0 l 1
 715 0 l 1
 716 510 l 1
 477 510 l 1
 476 0 l 1
EndSplineSet
PickledDataWithLists: "(dp1
S'com.schriftgestaltung.Glyphs.ColorIndex'
p2
I6
sS'public.markColor'
p3
S'0,0.67,0.91,1'
p4
s."
EndChar

StartChar: uni0BB4
Encoding: 32 2996 7
GlifName: tm_L_lla
Width: 1024
VWidth: 0
LayerCount: 2
Back
SplineSet
282 2 m 257
 316 2 l 257
 316 -23 l 258
 316 -104 409 -111 504 -111 c 258
 576 -111 l 257
 576 -111 l 257
 576 -161 l 257
 444 -161 391 -303 225 -305 c 256
 175 -306 114 -286 114 -205 c 256
 114 -160 145 -119 195 -100 c 256
 210 -126 l 256
 167 -147 147 -168 147 -206 c 256
 147 -242 167 -274 224 -274 c 256
 357 -274 397 -176 509 -141 c 257
 358 -153 282 -114 282 -24 c 258
 282 2 l 257
531 1 m 257
 46 1 l 256
 43 1 l 257
 43 517 l 257
 76 517 l 257
 76 34 l 257
 282 34 l 257
 282 313 l 258
 282 494 388 524 440 524 c 256
 579 523 618 377 617 284 c 256
 615 156 531 1 531 1 c 257
508 34 m 257
 508 34 584 169 583 285 c 256
 583 386 537 490 442 490 c 256
 359 490 317 422 316 312 c 258
 316 34 l 257
 508 34 l 257
EndSplineSet
Fore
PickledDataWithLists: "(dp1
S'com.fontlab.hintData'
p2
(dp3
S'vhints'
p4
(lp5
(dp6
S'position'
p7
S'-27'
p8
sS'width'
p9
I33
sa(dp10
g7
I212
sg9
I34
sa(dp11
g7
I513
sg9
I34
sasS'hhints'
p12
(lp13
(dp14
g7
I1
sg9
I33
sa(dp15
g7
I490
sg9
I34
sass."
EndChar

StartChar: uni0BF3
Encoding: 65 3059 8
GlifName: tm_N_aal
Width: 674
VWidth: 0
Flags: HW
HStem: -17 36<148.421 250.433> 0 35<448 654> 233 36<123.148 244.159> 499 36<199.098 357.367>
VStem: 40 37<115.107 357.718> 289 37<58.919 187.892> 471 38<133.101 373.304>
LayerCount: 2
Back
SplineSet
201 192 m 0
 211.412393305 191.886925351 221.876937226 189.599012793 231.068913731 184.706335801 c 0
 239.673992136 180.126051125 247.065972985 173.251924072 252.118242337 164.915200707 c 0
 257.362268225 156.262060878 260.077526672 146.117837023 260 136 c 0
 259.92517862 126.235224685 257.249921589 116.485139684 252.216156514 108.117485033 c 0
 247.461720839 100.21416114 240.623987874 93.5840168344 232.601704122 89.0331761918 c 0
 224.823909195 84.6210279359 215.940599284 82.1638004776 207 82 c 0
 198.504890212 81.8443613234 189.995674279 83.7666505414 182.331481835 87.434247558 c 0
 174.66728939 91.1018445746 167.867324301 96.481290091 162.269556581 102.873168552 c 0
 148.647792182 118.427344221 142.46260067 139.110127472 138.770437469 159.453499292 c 0
 134.036411414 185.537409182 131.988860928 212.091683359 131.988860928 238.60552062 c 0
 131.988860928 274.498203607 136.617395288 308.964998625 149.557436137 341.682146185 c 0
 160.093382713 368.320865709 176.721697662 393.064567808 199.915963308 409.876872506 c 0
 222.669249529 426.369534385 250.900534865 434.625849182 279 435 c 0
 279.686450584 435.009140247 280.373027507 435.013708033 281.059664209 435.013708033 c 0
 311.094557959 435.013708033 341.243832506 426.273858449 365.936923569 409.1853543 c 0
 389.757698734 392.700524021 407.922218008 368.765274843 419.706780082 342.302035141 c 0
 432.244125461 314.148356295 438.003733438 283.183146054 438.003733438 252.359737839 c 0
 438.003733438 233.529614226 435.948374399 215.220446037 432.331190739 196.942394031 c 0
 428.633573108 178.257899762 423.317821564 159.890147525 416.397570027 142.144927862 c 0
 409.74372659 125.082843807 401.578358557 108.609080438 392 93 c 1
 392 0 l 1
 676 0 l 1
 676 103 l 1
 512 103 l 1
 518.734296443 117.555611566 524.17712825 132.701752341 528.372846151 148.181175067 c 0
 532.909640484 164.918944135 536.059926763 182.012280939 538.367567439 199.199782523 c 0
 540.578778886 215.669071116 542.000024085 232.264574594 542.000024085 248.881539031 c 0
 541.994748248 274.830595276 538.046657588 300.605377401 531.852463898 325.782951179 c 0
 525.669039562 350.9167507 517.68545612 375.578088696 511.414672882 400.69023501 c 0
 497.399473702 456.815876589 497.286219406 515.191291226 496.123550386 573.028663672 c 0
 495.542215875 601.947349896 493.504415666 631.079736595 485.719015598 658.936798688 c 0
 477.93361553 686.793860781 464.055883962 713.157977996 444 734 c 0
 425.177712672 753.560071618 401.326746766 767.955745424 375.774537307 777.11868675 c 0
 350.222327849 786.281628076 323.106860034 790.553265378 296 792 c 0
 288.606865322 792.394582917 281.201403534 792.594091512 273.795667988 792.594091512 c 0
 247.528590513 792.594091512 221.258069103 790.084236001 195.521925644 784.86666724 c 0
 162.52973809 778.178057992 130.213025241 766.600486852 102.233873466 747.881806363 c 0
 74.2547216904 729.163125876 51.0492947286 702.927584239 37.7013083247 672.02364934 c 0
 28.2047699922 650.036782295 23.9938058841 626.09524599 23.9938058841 602.098009401 c 0
 23.9938058841 592.365609305 24.68643219 582.624047535 26 573 c 0
 30.0728983759 543.15931171 39.5166999293 514.363593197 46.9328807544 485.173604489 c 0
 53.3144431753 460.055860006 57.7187108695 434.258519324 57.7187108695 408.392108175 c 0
 57.7187108695 404.198485474 57.6029451264 400.003047264 57.3610711654 395.80839528 c 0
 55.8544983523 369.680950177 49.7123631532 344.064681015 43.0256256969 318.762493531 c 0
 36.3388882405 293.460306046 29.5645618709 268.044887631 27 242 c 0
 26.2121444158 233.998785292 25.8357827463 225.980724147 25.8357827463 217.965492393 c 0
 25.8357827463 179.593541529 34.4616143864 141.286437466 47.8585003578 105.203049778 c 0
 60.9859322297 69.8454140872 79.6404290744 35.3550694407 108.879678855 11.531590654 c 0
 136.260957485 -10.778055301 171.689359564 -22.2168052318 207 -23 c 0
 208.350198749 -23.0299475904 209.701327652 -23.0449888179 211.052913273 -23.0449888179 c 0
 238.28352895 -23.0449888179 265.699530023 -16.9396316278 289.429193537 -3.62600735222 c 0
 311.178397652 8.57647211858 329.383117097 27.0242141954 341.172492797 49.0000874537 c 0
 353.542982868 72.0591814065 359.004900002 98.4651226533 359.004900002 124.64121391 c 0
 359.004900002 153.992060644 352.462637572 182.77556152 338.507809333 208.167495138 c 0
 325.801459411 231.287721932 306.814843577 250.921887129 284.091824556 264.32564115 c 0
 261.238213042 277.806428493 234.731053175 285.004899226 208.198522006 285.004899226 c 0
 207.799016294 285.004899226 207.39950483 285.003267193 207 285 c 0
 187.028526097 284.836671163 167.130444647 280.618557019 148.685244877 272.959506712 c 0
 130.359835079 265.35019712 113.475959036 254.418377712 98.6077712997 241.278391786 c 0
 84.0490032317 228.411860174 71.3743430232 213.427975232 61 197 c 1
 105 136 l 1
 111.913879168 145.653893928 119.956498369 154.502536135 128.93965937 162.267985997 c 0
 138.842356104 170.828324054 149.90157559 178.101684842 161.877902456 183.384712865 c 0
 173.927910353 188.700243253 186.983497343 192.004616445 200.148739357 192.004616445 c 0
 200.432444971 192.004616445 200.716201507 192.003081944 201 192 c 0
  Spiro
    201 192 o
    231.069 184.706 o
    252.118 164.915 o
    260 136 o
    252.216 108.117 o
    232.602 89.0332 o
    207 82 o
    162.27 102.873 o
    138.77 159.453 o
    132 242 o
    149.557 341.682 o
    199.916 409.877 o
    279 435 o
    365.937 409.185 o
    419.707 342.302 o
    438 251 o
    432.331 196.942 o
    416.398 142.145 o
    392 93 v
    392 0 v
    676 0 v
    676 103 v
    512 103 v
    528.373 148.181 o
    538.368 199.2 o
    542 249 o
    511.415 400.69 o
    444 734 o
    296 792 o
    26 573 o
    57.3611 395.808 o
    27 242 o
    47.8585 105.203 o
    108.88 11.5316 o
    207 -23 o
    289.429 -3.62601 o
    341.172 49.0001 o
    359 126 o
    338.508 208.167 o
    284.092 264.326 o
    207 285 o
    148.685 272.96 o
    98.6078 241.278 o
    61 197 v
    105 136 v
    128.94 162.268 o
    161.878 183.385 o
    0 0 z
  EndSpiro
EndSplineSet
Fore
SplineSet
188 233 m 256xbe
 131 233 95 199 66 165 c 257
 49 187 l 257
 80 238 134 269 190 269 c 256
 266 269 326 209 326 126 c 256
 326 43 274 -17 203 -17 c 256xbe
 98 -17 40 92 40 242 c 256
 40 421.959044369 129 552.935153584 275 554 c 260
 422.630901288 555.02112676 511.008583691 433.507042254 509 264 c 256
 509 212.050925926 500.866666667 115.574074074 448 35 c 257
 654 35 l 257
 654 0 l 257
 403 0 l 257x7e
 403 33 l 257
 458 102.935779817 471 200.422018349 471 264 c 256
 471 411.483870967 399 518 276 518 c 260
 151 518 77 402.015564202 77 242 c 256
 77 113 120 19 202 19 c 256
 252 19 289 64 289 126 c 256
 289 188 245 233 188 233 c 256xbe
EndSplineSet
PickledDataWithLists: "(dp1
S'com.schriftgestaltung.Glyphs.ColorIndex'
p2
I6
sS'public.markColor'
p3
S'0,0.67,0.91,1'
p4
s."
EndChar

StartChar: uni0B92
Encoding: 12 2962 9
GlifName: tm_O_
Width: 1024
VWidth: 0
LayerCount: 2
Back
SplineSet
68 242 m 256
 68 192 109 151 159 151 c 256
 209 151 250 192 250 242 c 256
 250 292 209 333 159 333 c 256
 109 333 68 292 68 242 c 256
36 242 m 256
 36 310 91 365 159 365 c 256
 227 365 282 310 282 242 c 256
 282 174 227 119 159 119 c 256
 91 119 36 174 36 242 c 256
50 185 m 257
 -6 278 40 527 266 527 c 256
 454 527 515 377 515 232 c 256
 515 64 401 -37 331 -71 c 257
 330 -75 334 -53 333 -56 c 257
 370 -86 432 -106 489 -112 c 257
 490 -166 l 257
 396 -179 403 -261 245 -261 c 256
 151 -261 108 -195 93 -166 c 257
 116 -147 l 257
 133 -175 165 -229 248 -229 c 256
 369 -229 389 -146 473 -135 c 257
 463 -144 l 257
 400 -129 275 -111 275 12 c 256
 275 34 283 57 283 57 c 257
 314 57 l 257
 308 42 305 27 305 12 c 256
 305 -19 317 -42 329 -51 c 257
 308 -35 l 257
 386 -10 481 106 483 230 c 256
 485 341 438 494 266 494 c 256
 82 494 30 286 76 206 c 257
 50 185 l 257
EndSplineSet
Fore
PickledDataWithLists: "(dp1
S'com.fontlab.hintData'
p2
(dp3
S'vhints'
p4
(lp5
(dp6
S'position'
p7
I250
sS'width'
p8
I32
sa(dp9
g7
I275
sg8
I30
sa(dp10
g7
I483
sg8
I32
sasS'hhints'
p11
(lp12
(dp13
g7
S'-261'
p14
sg8
I32
sa(dp15
g7
S'-166'
p16
sg8
I54
sa(dp17
g7
I119
sg8
I32
sa(dp18
g7
I333
sg8
I32
sa(dp19
g7
I494
sg8
I33
sass."
EndChar

StartChar: uni0B93
Encoding: 13 2963 10
GlifName: tm_O_o
Width: 1024
VWidth: 0
LayerCount: 2
Back
SplineSet
99 -165 m 256
 99 -182 113 -196 130 -196 c 256
 148 -196 162 -182 162 -165 c 256
 162 -148 148 -134 130 -134 c 256
 113 -134 99 -148 99 -165 c 256
69 -166 m 256
 69 -132 96 -103 130 -103 c 256
 164 -103 192 -131 192 -165 c 256
 192 -199 164 -227 130 -227 c 256
 96 -227 69 -200 69 -166 c 256
44 242 m 256
 44 192 85 151 135 151 c 256
 185 151 226 192 226 242 c 256
 226 292 185 333 135 333 c 256
 85 333 44 292 44 242 c 256
12 242 m 256
 12 310 67 365 135 365 c 256
 203 365 258 310 258 242 c 256
 258 174 203 119 135 119 c 256
 67 119 12 174 12 242 c 256
26 185 m 257
 -30 278 16 527 242 527 c 256
 430 527 491 377 491 232 c 256
 491 64 377 -37 307 -71 c 257
 306 -75 310 -53 309 -56 c 257
 346 -86 408 -106 465 -112 c 257
 466 -166 l 257
 372 -179 379 -261 221 -261 c 256
 77 -261 71 -195 69 -166 c 257
 99 -165 l 257
 96 -193 121 -229 224 -229 c 256
 345 -229 365 -146 449 -135 c 257
 439 -144 l 257
 376 -129 251 -111 251 12 c 256
 251 34 259 57 259 57 c 257
 290 57 l 257
 284 42 281 27 281 12 c 256
 281 -19 293 -42 305 -51 c 257
 284 -35 l 257
 362 -10 457 106 459 230 c 256
 461 341 414 494 242 494 c 256
 58 494 6 286 52 206 c 257
 26 185 l 257
EndSplineSet
Fore
EndChar

StartChar: uni0BAA
Encoding: 25 2986 11
GlifName: tm_P_a
Width: 561
VWidth: 0
Flags: HW
HStem: 0 35<106 455>
VStem: 70 36<35 520> 455 36<35 520>
LayerCount: 2
Back
SplineSet
396 520 m 257
 396 103 l 261
 165 103 l 261
 165 520 l 257
 60 520 l 257
 60 0 l 257
 501 0 l 257
 501 520 l 257
 396 520 l 257
EndSplineSet
Fore
SplineSet
455 545 m 261
 491 545 l 261
 491 0 l 257
 70 0 l 257
 70 545 l 261
 106 545 l 261
 106 35 l 257
 455 35 l 257
 455 545 l 261
EndSplineSet
PickledDataWithLists: "(dp1
S'com.schriftgestaltung.Glyphs.ColorIndex'
p2
I5
sS'public.markColor'
p3
S'0.04,0.57,0.04,1'
p4
s."
EndChar

StartChar: uni0BB0
Encoding: 28 2992 12
GlifName: tm_R_a
Width: 532
VWidth: 0
Flags: HW
HStem: 0 21G<70 106.041 375 411.038> 485 35<107 376 411.933 512>
VStem: 70 36<0 485> 376 35.9327<15 485>
LayerCount: 2
Back
SplineSet
451 0 m 261
 196 -238.46875 l 261
 130 -170.46875 l 261
 346 32 l 261
 451 0 l 261
165 0 m 1
 60 0 l 1
 60 520 l 1
 538 520 l 1
 538 417 l 1
 451 417 l 1
 451 0 l 1
 346 0 l 1
 346 417 l 1
 165 417 l 1
 165 0 l 1
EndSplineSet
Fore
SplineSet
411 0 m 257
 179 -221 l 257
 156 -197 l 257
 375 15 l 257
 411 0 l 257
106 0 m 1
 70 0 l 1
 71 545 l 5
 512 545 l 5
 512 510 l 5
 411.932617188 510 l 5
 411 0 l 1
 375 0 l 1
 376 510 l 5
 107 510 l 5
 106 0 l 1
EndSplineSet
PickledDataWithLists: "(dp1
S'com.schriftgestaltung.Glyphs.ColorIndex'
p2
I6
sS'public.markColor'
p3
S'0,0.67,0.91,1'
p4
sS'com.fontlab.hintData'
p5
(dp6
S'vhints'
p7
(lp8
(dp9
S'position'
p10
I80
sS'width'
p11
I33
sa(dp12
g10
I469
sg11
I33
sasS'hhints'
p13
(lp14
(dp15
g10
I0
sg11
I21
sa(dp16
g10
I485
sg11
I35
sass."
EndChar

StartChar: uni0BB1
Encoding: 29 2993 13
GlifName: tm_R_ra
Width: 1024
VWidth: 0
LayerCount: 2
Back
SplineSet
352 0 m 257
 320 0 l 257
 320 380 l 257
 352 380 l 257
 352 0 l 257
352 390 m 1281
47 360 m 256
 47 442 97 524 202 524 c 256
 317 524 353 434 352 372 c 257
 321 372 l 257
 320 477 243 493 201 493 c 256
 143 493 79 451 79 361 c 256
 47 360 l 256
352 0 m 257
 320 0 l 1281
79 0 m 257
 47 0 l 257
 47 380 l 257
 79 380 l 257
 79 0 l 257
352 396 m 256
 320 403 l 256
 320 416 343 518 464 518 c 256
 628 518 629 329 629 209 c 256
 629 48 573 -128 311 -128 c 258
 255 -128 l 258
 188 -128 114 -131 115 -201 c 256
 116 -243 123 -289 213 -299 c 257
 214 -331 l 257
 116 -325 81 -269 81 -202 c 256
 81 -86 205 -95 284 -95 c 258
 310 -95 l 258
 553 -95 595 72 595 209 c 256
 595 317 587 484 464 484 c 256
 408 484 352 447 352 396 c 256
EndSplineSet
Fore
EndChar

StartChar: uni0BB6
Encoding: 34 2998 14
GlifName: tm_S_ha
Width: 1024
VWidth: 0
LayerCount: 2
Back
SplineSet
297 485 m 257
 297 520 l 257
 719 520 l 257
 719 485 l 257
 297 485 l 257
687 520 m 257
 719 520 l 257
 719 130 l 257
 719 230 l 257
 687 230 l 257
 687 129 l 257
 687 520 l 257
414 520 m 257
 446 520 l 257
 446 130 l 257
 414 130 l 257
 414 520 l 257
719 254 m 256
 719 132 720 -4 564 -4 c 256
 429 -4 413 86 414 148 c 257
 445 148 l 257
 446 43 503 27 565 27 c 256
 687 27 687 142 687 252 c 256
 719 254 l 256
24 520 m 257
 56 520 l 257
 56 224 l 258
 56 52 117 27 175 27 c 256
 289 27 297 126 297 224 c 258
 297 224 297 420 297 520 c 257
 329 520 l 257
 329 224 l 258
 329 108 320 -4 174 -4 c 256
 46 -4 24 100 24 224 c 258
 24 520 l 257
EndSplineSet
Fore
EndChar

StartChar: uni0B9F
Encoding: 20 2975 15
GlifName: tm_T_ta
Width: 703
VWidth: 0
Flags: HW
HStem: 0 35<106 673>
VStem: 70 36<35 520>
LayerCount: 2
Back
SplineSet
673 103 m 257
 175 103 l 257
 175 520 l 257
 70 520 l 257
 70 0 l 257
 673 0 l 257
 673 103 l 257
EndSplineSet
Fore
SplineSet
673 35 m 257
 673 0 l 257
 70 0 l 257
 70 545 l 261
 105 545 l 261
 105 35 l 257
 673 35 l 257
EndSplineSet
PickledDataWithLists: "(dp1
S'com.schriftgestaltung.Glyphs.ColorIndex'
p2
I6
sS'public.markColor'
p3
S'0,0.67,0.91,1'
p4
s."
EndChar

StartChar: uni0B8A
Encoding: 8 2954 16
GlifName: tm_U_u
Width: 1024
VWidth: 0
LayerCount: 2
Back
SplineSet
204 0 m 257
 204 36 l 257
 840 36 l 257
 840 0 l 257
 204 0 l 257
461 141 m 256
 461 162 478 179 499 179 c 256
 520 179 537 162 537 141 c 256
 537 120 520 103 499 103 c 256
 478 103 461 120 461 141 c 256
520 347 m 257
 443 343 408 269 408 201 c 256
 408 144 435 72 499 72 c 256
 537 72 568 103 568 141 c 256
 568 179 537 210 499 210 c 256
 474 210 452 197 440 177 c 257
 436 202 439 230 448 254 c 256
 461 290 488 315 527 316 c 257
 550 315 569 307 583 281 c 256
 586 275 588 269 588 262 c 258
 588 73 l 257
 619 73 l 257
 619 230 l 258
 619 238 620 247 619 255 c 257
 619 316 l 257
 712 316 l 257
 712 73 l 257
 743 73 l 257
 743 316 l 257
 841 316 l 257
 841 348 l 257
 588 348 l 257
 588 327 l 257
 569 340 557 346 520 347 c 257
EndSplineSet
Fore
EndChar

StartChar: uni0BB5
Encoding: 33 2997 17
GlifName: tm_V_a
Width: 772
VWidth: 0
Flags: HW
HStem: -17 36<148.421 250.433> 0 35<448 666> 233 36<123.148 244.159> 499 36<199.098 353.809>
VStem: 40 37<115.107 357.718> 289 37<58.919 187.892> 471 37<129.698 365.548> 666 36<35 520>
LayerCount: 2
Back
SplineSet
65 216 m 257x7f
 105 132 l 257
 120.776523709 165.072115385 156.72930371 192 196 192 c 256
 232.119212962 192 260 168.925175108 260 130 c 256
 260 96.0280845907 233.740174411 80 207 80 c 256
 146.993157174 80 128 148.286723293 128 242 c 256
 128 353.633824482 184.191556538 438 282 438 c 256
 383.073396382 438 438 350.882669201 438 251 c 256
 438 199.197459724 420.107208807 137.429833075 392 93 c 257
 392 0 l 257
 728 0 l 257
 728 521 l 257
 623 521 l 257
 623 103 l 257
 512 103 l 257
 531.616887019 143.135373652 541.51330255 201.932488788 542 249 c 256
 543.765290193 419.717590536 444.557418364 542.089954801 278 541 c 256
 122.059450581 539.972696245 27 409.614334471 27 240 c 256
 27 87.6834472656 91.0492354612 -23 207 -23 c 256
 303.951053504 -23 359 39.517835829 359 126 c 256
 359 234.757551221 285.679857848 289 202 289 c 256
 144.522130744 289 93.3174856086 256.134290456 65 216 c 257x7f
EndSplineSet
Fore
SplineSet
49 187 m 257xbf
 80 238 134 269 190 269 c 256
 266 269 326 209 326 126 c 256
 326 43 274 -17 203 -17 c 256xbf
 98 -17 40 92 40 242 c 256
 40 422.535836177 129 553.931740614 275 555 c 260
 421.999953249 556.077753854 510 428.690140845 508 251 c 256
 507.409681398 202.003556007 500 111 448 35 c 257
 666 35 l 257
 666 545 l 257
 702 545 l 257
 702 0 l 257
 403 0 l 257x7f
 403 33 l 257
 458 99 471 191 471 251 c 256
 471 406.612903226 399 519 276 519 c 260
 151 519 77 402.595330739 77 242 c 256
 77 113 120 19 202 19 c 256
 252 19 289 64 289 126 c 256
 289 188 245 233 188 233 c 256
 131 233 95 199 66 165 c 257
 49 187 l 257xbf
EndSplineSet
PickledDataWithLists: "(dp1
S'com.schriftgestaltung.Glyphs.ColorIndex'
p2
I5
sS'public.markColor'
p3
S'0.04,0.57,0.04,1'
p4
s."
Substitution2: "ss07-0" tm_Va.ss07
Substitution2: "ss06-0" uni0BB5.ss06
Substitution2: "ss05-0" uni0BB5.ss05
Substitution2: "ss04-0" uni0BB5.ss04
Substitution2: "ss03-0" uni0BB5.ss03
Substitution2: "ss02-0" uni0BB5.ss02
Substitution2: "ss01-0" uni0BB5.ss01
EndChar

StartChar: uni0B83
Encoding: 2 2947 18
GlifName: tm_V_isarga
Width: 1024
VWidth: 0
LayerCount: 2
Back
SplineSet
475 106 m 256
 475 170 527 222 591 222 c 256
 655 222 707 170 707 106 c 256
 707 42 655 -10 591 -10 c 256
 527 -10 475 42 475 106 c 256
503 106 m 256
 503 58 542 19 590 19 c 256
 639 19 677 58 677 106 c 256
 677 154 639 193 590 193 c 256
 542 193 503 154 503 106 c 256
27 106 m 256
 27 170 79 222 143 222 c 256
 207 222 259 170 259 106 c 256
 259 42 207 -10 143 -10 c 256
 79 -10 27 42 27 106 c 256
55 106 m 256
 55 58 94 19 142 19 c 256
 191 19 229 58 229 106 c 256
 229 154 191 193 142 193 c 256
 94 193 55 154 55 106 c 256
246 678 m 256
 246 742 299 794 363 794 c 256
 426 794 479 742 479 678 c 256
 479 614 426 562 363 562 c 256
 299 562 246 614 246 678 c 256
275 678 m 256
 275 630 314 591 362 591 c 256
 410 591 449 630 449 678 c 256
 449 726 410 765 362 765 c 256
 314 765 275 726 275 678 c 256
EndSplineSet
Fore
EndChar

StartChar: uni0BBE
Encoding: 38 3006 19
GlifName: tm_V_owelA_a
Width: 642
VWidth: 0
Flags: HW
HStem: 0 21G<180 216.041 485 521.038> 485 35<217 486 521.933 622>
VStem: 180 36<0 485> 485 36<0 485>
LayerCount: 2
Back
SplineSet
165 0 m 1
 60 0 l 1
 60 520 l 1
 538 520 l 1
 538 420 l 1
 451 420 l 1
 451 0 l 1
 346 0 l 1
 346 420 l 1
 165 420 l 1
 165 0 l 1
EndSplineSet
Fore
SplineSet
216 0 m 1
 180 0 l 1
 181 545 l 5
 622 545 l 5
 622 510 l 5
 521.932617188 510 l 5
 521 0 l 1
 485 0 l 1
 486 510 l 5
 217 510 l 5
 216 0 l 1
EndSplineSet
PickledDataWithLists: "(dp1
S'com.schriftgestaltung.Glyphs.ColorIndex'
p2
I6
sS'public.markColor'
p3
S'0,0.67,0.91,1'
p4
s."
EndChar

StartChar: uni0BAF
Encoding: 27 2991 20
GlifName: tm_Y_a
Width: 1024
VWidth: 0
LayerCount: 2
Back
SplineSet
465 520 m 257
 497 520 l 257
 497 130 l 257
 497 0 l 257
 465 0 l 257
 465 129 l 257
 465 520 l 257
469 0 m 257
 469 35 l 257
 787 35 l 257
 787 0 l 257
 469 0 l 257
754 520 m 257
 787 520 l 257
 787 0 l 257
 754 0 l 257
 754 520 l 257
192 520 m 257
 224 520 l 257
 224 150 l 258
 224 40 285 27 343 27 c 256
 465 27 465 142 465 252 c 257
 497 254 l 257
 497 132 498 -4 342 -4 c 256
 214 -4 192 72 192 150 c 258
 192 520 l 257
EndSplineSet
Fore
EndChar

StartChar: uni0BED
Encoding: 59 3053 21
Width: 694
VWidth: 0
Flags: HW
HStem: -17 36<142.421 244.433> 1 21G<532 568> 233 36<117.148 238.159>
VStem: 34 37<115.107 346.148> 283 37<58.919 187.892> 532 36<1 486> 558 10<486 521>
LayerCount: 2
Back
SplineSet
298 520 m 1x3e
 589 520 l 1
 589 0 l 1
 484 0 l 1
 484 417 l 1
 403 417 l 1
 298 520 l 1x3e
214 192 m 256
 172.571573144 192 136.643365671 162.492307692 118 136 c 257
 74 197 l 257
 104.177758386 245.381062468 158.746212326 285 220 285 c 256
 304.941964286 285 372 218.285893522 372 126 c 256
 372 39.517835829 316.951053504 -23 220 -23 c 256
 104.049235461 -23 40 88.5251464844 40 242 c 256
 40 402.348122867 130.136094967 519.044888525 278 520 c 256
 442 520.002929688 l 257
 439 417 l 256
 279 417 l 256
 187.537146819 417 145 343.458771859 145 242 c 256
 145 149.443677326 163.03147833 82 220 82 c 256
 246.740174411 82 273 104.710331358 273 136 c 256
 273 168.448545259 247.29739945 192 214 192 c 256
EndSplineSet
Fore
SplineSet
300 510 m 257
 156.155778894 510 71 397.377431906 71 242 c 256
 71 113 114 19 196 19 c 256
 246 19 283 64 283 126 c 256
 283 188 239 233 182 233 c 256
 125 233 89 199 60 165 c 257
 43 187 l 257
 74 238 128 269 184 269 c 256
 260 269 320 209 320 126 c 256
 320 43 268 -17 197 -17 c 256
 92 -17 34 92 34 242 c 256
 34 416.767918089 134.361702128 543.965870307 299 545 c 256xb8
 558 545 l 257x3a
 558 510 l 257
 300 510 l 257
 300 510 l 257
568 1 m 257x7c
 532 1 l 257
 532 545 l 257x7c
 568 545 l 257x7a
 568 1 l 257x7c
EndSplineSet
EndChar

StartChar: NameMe.12
Encoding: 256 49 22
Width: 226
Flags: HW
HStem: 0 21G<53 158>
VStem: 53 105<0 377>
LayerCount: 2
Back
Fore
SplineSet
31 503 m 1
 16 535 l 1
 122 590 l 1
 154 590 l 5
 154 0 l 5
 120 0 l 1
 120 548 l 1
 31 503 l 1
EndSplineSet
EndChar

StartChar: NameMe.13
Encoding: 257 50 23
Width: 432
VWidth: 0
Flags: HW
LayerCount: 2
Back
Fore
SplineSet
384 352 m 0
 361.165628122 218.140210158 119.044548742 148 71 35 c 1
 407 35 l 1
 407 0 l 1
 27 0 l 1
 27 33 l 1
 98 192 325.324429732 236.701647039 349 352 c 0
 375.611659779 481.596901252 300.961079524 561.464763072 211 562 c 0
 101.98403569 562.648606821 65 477.0390625 51 437 c 1
 20 449 l 1
 42 526 115.888364162 597 210 597 c 0
 321 597 407.670136222 503.329733511 384 352 c 0
EndSplineSet
EndChar

StartChar: NameMe.14
Encoding: 258 51 24
Width: 432
VWidth: 0
Flags: HW
LayerCount: 2
Back
Fore
SplineSet
181 266 m 1
 181 305 l 1
 260.566381495 308.949316641 333.539645654 347.392251078 339 422 c 0
 342.952965363 495.788686778 290.960007233 561.375564361 201 562 c 4
 98.7975334594 562.648606821 64.125 477.0390625 51 437 c 5
 20 449 l 5
 40.8421052632 526 110.841608153 597 200 597 c 4
 311 597 376.620286243 516.126965422 374 422 c 0
 369.127272728 329.716981132 286.59750306 289.292840438 240 288 c 1
 331.016061042 288 378.96152644 209.50013242 377.573242188 147 c 0
 375.179521192 50.0267728716 286.207257176 -7 200 -7 c 0
 110.841608153 -7 40.8421052632 59.2027027027 20 131 c 1
 51 143 l 1
 64.125 106.1640625 98.7973464272 27.4349722811 201 28 c 0
 277.58614894 28.3872789767 339.774607807 72.506773646 342.637695312 147 c 0
 344.723271783 225.088782187 291.204506878 260.747884569 181 266 c 1
EndSplineSet
EndChar

StartChar: uni0B86
Encoding: 4 2950 25
Width: 962
VWidth: 0
Flags: HW
HStem: -134 36<166.706 355.432> 160 35<141.354 678> 298 35<219.933 321.795> 492 37<228.107 385.381>
VStem: 155 37<359.354 458.575> 524 37<84.4743 308.835> 670 36<-129 160 195 521> 670 8<160 195>
LayerCount: 2
Back
Fore
SplineSet
66 166 m 1049
672 -127 m 5,1,2
 669.898762056 37.6587293597 720.333786577 124 818 124 c 4,3,4
 936.338904003 124 974 5.81436642454 974 -110 c 4,5,6
 974 -256.871715638 904.932542883 -348.613153704 788 -361 c 4,7,8
 683.227361592 -370.4156985 559.644233306 -344.111268303 533 -130 c 5,9,-1
 568 -124 l 5,10,11
 587.268394349 -276.3 656.165624201 -337.126614506 785 -327 c 4,12,13
 892.044311767 -317.610601991 940 -218.253048336 940 -114 c 4,14,15
 940 -4 908.744680851 90 819 90 c 4,16,17
 714.988052569 90 706.049762019 -29.5947615518 705 -130 c 5,18,-1
 672 -127 l 5,1,2
706 -129 m 257,0,-1
 670 -129 l 257,1,-1
 670 521 l 257,2,-1
 706 521 l 257,3,-1
 706 -129 l 257,0,-1
524 176 m 0,4,5
 525.926231568 318.453500224 458.301712548 488.950718588 276 492 c 0,6,7
 227.976127932 492.803274409 180.956044098 458.580220097 182 408 c 0,8,9
 182.82 368.27056277 208.431924759 333.888631761 264 333 c 0,10,11
 336.663770951 331.837977842 353.444444445 425.242774567 348 491 c 257,12,-1
 380 485 l 257,13,14
 391.582481846 393.842857143 356.857497232 298.905023395 267 298 c 0,15,16
 190.041209717 297.224889321 145.897083579 345.391041922 145 408 c 0,17,18
 144.014925373 476.75 208.030746123 528.688737877 276 529 c 0,19,20
 481.555766621 529.941333333 560.038676027 341.726080949 561 176 c 0,21,22
 562.031141868 -1.76223776224 424.432525952 -134 275 -134 c 256,23,24
 112.066123188 -134 38.7097034903 -65.2188987962 30 27 c 256,25,26
 19.3825103778 139.418660639 102.328767123 215 206 215 c 258,27,-1
 678 215 l 257,28,-1
 678 180 l 257,29,-1
 209 180 l 258,30,31
 120.084611525 180 54.4377352222 108.227500455 67 27 c 256,32,33
 82.2429538611 -71.5608139609 191.800174061 -98 276 -98 c 256,34,35
 401.968253968 -98 521.799806012 13.2857448618 524 176 c 0,4,5
EndSplineSet
EndChar

StartChar: uni0B9E
Encoding: 19 2974 26
Width: 1022
VWidth: 0
Flags: HWO
HStem: -17 36<315.921 417.933> 1 21G<705.5 741.5> 233 36<290.648 411.659> 486 35<382.372 705.5 741.5 841.5>
VStem: 207.5 37<115.107 346.148> 456.5 37<58.919 187.892> 705.5 36<1 486>
LayerCount: 2
Back
Fore
SplineSet
707.5 107 m 1
 705.441870959 255.914875654 764.702889278 334 850.5 334 c 0
 953.666992188 334 986.5 237.027027027 986.5 142 c 0
 986.5 -76.2594581359 837.199001822 -222.078444662 584.5 -231 c 0
 418.895454044 -236.846679688 66.186196635 -193.28255532 64.3232421875 242 c 0
 63.9318468835 333.450195312 88.8385934195 428.994140625 146.5 531.002929688 c 1
 176.5 517 l 1
 120.546548437 421.07930621 97.7040604076 332.503892427 97.75 244 c 0
 97.9241607221 -82.0166187031 314.33519436 -199.694295135 581.5 -197 c 0
 837.721689678 -194.416063653 952.5 -25.9657242572 952.5 138 c 0
 952.5 225.352844238 926.411132812 300 851.5 300 c 0
 760.048171322 300 741.52259057 193.451970881 740.5 104 c 1
 707.5 107 l 1
239.5 187 m 257xbe
 270.5 238 324.5 269 380.5 269 c 256
 456.5 269 516.5 209 516.5 126 c 256
 516.5 43 464.5 -17 393.5 -17 c 256
 288.5 -17 230.5 92 230.5 242 c 256
 230.5 416.767578125 330.861328125 543.965820312 495.5 545 c 256
 496.5 510 l 256
 352.65625 510 267.5 397.376953125 267.5 242 c 256
 267.5 113 310.5 19 392.5 19 c 256
 442.5 19 479.5 64 479.5 126 c 256
 479.5 188 435.5 233 378.5 233 c 256
 321.5 233 285.5 199 256.5 165 c 257
 239.5 187 l 257xbe
705.5 1 m 1x7e
 705.5 510 l 1
 496.5 510 l 1
 491.5 545 l 1
 841.5 545 l 1
 841.5 510 l 1
 741.5 510 l 1
 741.5 1 l 1
 705.5 1 l 1x7e
EndSplineSet
EndChar
